# xmcd CD database file
#
# Track frame offsets:
#	150
#	12097
#	26867
#	39920
#	53450
#	70612
#	83312
#	95572
#	117967
#	135770
#	149482
#	162140
#	178155
#	191375
#	204837
#	218457
#
# Disc length: 3105 seconds
#
# Revision: 4
# Processed by: cddbd v1.5.2PL0 Copyright (c) Steve Scherf et al.
# Submitted via: CDex 1.79
#
DISCID=bf0c1f10
DTITLE=Various Artist - Country Dream Ballads
DYEAR=1996
DGENRE=Country
TTITLE0=Charley Rich - The Most Beautiful Girl
TTITLE1=Oliwia Newton-John - Banks Of The Ohio
TTITLE2=Glenn Campbell - By The Time I Get To Phoenix
TTITLE3=Jim Reeves and Patsy Cline - Have You Ever Been Lonely
TTITLE4=Bobby Goldsboro - Honey
TTITLE5=Freddy Fender - Wasted Days And Wasted Nights
TTITLE6=Patsy Cline - Crazy
TTITLE7=John Denver - Sunshine On My Shoulders
TTITLE8=Eddie Rabbitt and Crystal Gayle - You And I
TTITLE9=Marty Robbins - Devil Woman
TTITLE10=B.J. Thomas - I'm So Lonesome I Could Cry
TTITLE11=Anne Murray - You Need Me
TTITLE12=Hank Locklin - Please Help Me, I Am Falling
TTITLE13=Faron Young - It's Four In The Morning
TTITLE14=Dolly Parton - I Will Always Love You
TTITLE15=John Denver - Take Me Home, Country Roads
EXTD=YEAR: 1996
EXTT0=
EXTT1=
EXTT2=
EXTT3=
EXTT4=
EXTT5=
EXTT6=
EXTT7=
EXTT8=
EXTT9=
EXTT10=
EXTT11=
EXTT12=
EXTT13=
EXTT14=
EXTT15=
PLAYORDER=
